# xmcd
#
# Track frame offsets:
# 182
# 17495
# 28165
# 41935
# 63280
# 83012
# 98780
# 116135
# 131265
# 146172
# 165000
# 182272
# 197225
# 221195
# 235602
# 252050
# 272955
#
# Disc length: 3843 seconds
#
#
# Revision: 0
# Processed by: cddbd v1.4PL0 Copyright (c) Steve Scherf et al.
# Submitted via: FreeRIP 2.35 
#
DISCID=e60f0111
DTITLE=Willie Nelson cd 2 - Country Classics
DYEAR=1900
DGENRE=Country
TTITLE0=Unchained Melody
TTITLE1=Blue Eyes Crying In The Rain
TTITLE2=Who's Sorry Now
TTITLE3=Across The Borderline
TTITLE4=American Tune
TTITLE5=She's Out Of My Life
TTITLE6=The Wind Beneath My Wings
TTITLE7=Nothing I Can Do About it Now
TTITLE8=Something
TTITLE9=Untill it's Time For You To Go
TTITLE10=Harbor Lights
TTITLE11=I Fall To Pieces
TTITLE12=Kathleen
TTITLE13=Heart Of Gold
TTITLE14=Over The Rainbow
TTITLE15=Bridge Over Troubled Water
TTITLE16=So Much Like My Dad
EXTD=Reader's digest collection
EXTT0=
EXTT1=
EXTT2=
EXTT3=
EXTT4=
EXTT5=
EXTT6=
EXTT7=
EXTT8=
EXTT9=
EXTT10=
EXTT11=
EXTT12=
EXTT13=
EXTT14=
EXTT15=
EXTT16=
PLAYORDER=
